<?xml version="1.0" encoding="UTF-8" standalone="no"?>
<!-- Created with Inkscape (http://www.inkscape.org/) -->

<svg
   width="200mm"
   height="130mm"
   viewBox="0 0 200 130"
   version="1.1"
   id="svg1"
   xml:space="preserve"
   inkscape:version="1.4.2 (ebf0e940d0, 2025-05-08)"
   sodipodi:docname="dibujo.svg"
   xmlns:inkscape="http://www.inkscape.org/namespaces/inkscape"
   xmlns:sodipodi="http://sodipodi.sourceforge.net/DTD/sodipodi-0.dtd"
   xmlns="http://www.w3.org/2000/svg"
   xmlns:svg="http://www.w3.org/2000/svg"><sodipodi:namedview
     id="namedview1"
     pagecolor="#ffffff"
     bordercolor="#000000"
     borderopacity="0.25"
     inkscape:showpageshadow="2"
     inkscape:pageopacity="0.0"
     inkscape:pagecheckerboard="0"
     inkscape:deskcolor="#d1d1d1"
     inkscape:document-units="mm"
     inkscape:zoom="0.73575611"
     inkscape:cx="764.51964"
     inkscape:cy="399.58893"
     inkscape:window-width="2560"
     inkscape:window-height="1371"
     inkscape:window-x="0"
     inkscape:window-y="32"
     inkscape:window-maximized="1"
     inkscape:current-layer="layer1" /><defs
     id="defs1" /><g
     inkscape:label="Capa 1"
     inkscape:groupmode="layer"
     id="layer1"><g
       id="g2"
       transform="matrix(1.1492761,0,0,1.1492761,-18.191915,-2.7008571)"
       style="stroke-width:0.870113"><path
         style="fill:#000080;stroke-width:0.870113"
         d="m 81.392356,107.11981 c -0.289757,-0.0487 -1.005029,-0.36256 -1.589494,-0.69741 -0.818489,-0.46892 -1.195447,-0.84967 -1.640552,-1.65702 -0.548899,-0.99563 -0.572875,-1.13905 -0.477904,-2.85876 0.05499,-0.9958 0.369477,-3.139863 0.698853,-4.764593 0.329377,-1.62472 0.753412,-3.79023 0.942301,-4.81224 l 0.343435,-1.85819 h 1.974126 c 1.609195,0 1.974125,0.0521 1.974125,0.28189 0,0.15504 -0.360586,2.16699 -0.801302,4.47099 -1.274979,6.665413 -1.289616,7.544583 -0.136773,8.215193 0.711598,0.41393 2.170713,0.49491 3.072614,0.17051 0.896996,-0.32262 1.829856,-1.31645 2.256273,-2.40374 0.296657,-0.75642 2.201649,-9.945293 2.201649,-10.619823 0,-0.0633 0.89897,-0.11502 1.99771,-0.11502 1.34331,0 1.99772,0.07 1.99772,0.21381 0,0.45788 -1.83672,9.652303 -2.09959,10.510353 -0.76302,2.49059 -2.346918,4.31023 -4.644725,5.33605 -1.184055,0.5286 -1.543004,0.59485 -3.431997,0.63347 -1.1603,0.0237 -2.346711,0.003 -2.636469,-0.0455 z m 34.487984,-0.13353 c -2.42116,-0.76053 -3.65182,-2.22725 -3.46257,-4.12674 l 0.0665,-0.66704 1.80524,-0.0543 1.80525,-0.0543 0.25603,0.67548 c 0.28653,0.75592 0.95434,1.16691 2.20651,1.35793 1.62864,0.24845 3.61588,-0.71042 3.61588,-1.74471 0,-1.07319 -0.0985,-1.1318 -3.39611,-2.0208 -3.59736,-0.969803 -4.68846,-1.937743 -4.69243,-4.162773 -0.006,-3.20165 2.80507,-5.62357 6.80259,-5.8615 3.96828,-0.23619 6.48001,1.40495 6.48001,4.23395 v 1.0558 h -1.97901 c -1.84518,0 -1.97231,-0.0245 -1.87986,-0.36171 0.13616,-0.49675 -0.43396,-1.26694 -1.14616,-1.54837 -0.92452,-0.36534 -2.68503,-0.15183 -3.30822,0.40121 -0.76084,0.6752 -0.95222,1.27457 -0.58001,1.81651 0.39048,0.56853 1.05182,0.87751 2.80023,1.30827 2.14801,0.52921 3.75826,1.28594 4.31036,2.02564 0.70688,0.947063 0.79,2.977933 0.17749,4.336263 -0.56534,1.25374 -2.0311,2.53352 -3.5486,3.09833 -1.41099,0.52518 -5.05671,0.69372 -6.33308,0.29278 z m 34.96001,0.055 c -1.20092,-0.33527 -2.79033,-1.41147 -3.4288,-2.32165 -2.06355,-2.9417 -1.03658,-8.319773 2.2047,-11.545663 4.29671,-4.27632 11.52795,-3.74903 13.6791,0.99745 0.44743,0.98725 0.50492,2.78818 0.14392,4.50814 -1.09182,5.201903 -5.19498,8.598803 -10.32308,8.546223 -0.92209,-0.009 -1.94621,-0.0925 -2.27584,-0.1845 z m 5.06355,-3.69047 c 0.99802,-0.48247 2.19717,-1.60922 2.70013,-2.5371 0.45006,-0.830303 0.92817,-2.771313 0.91119,-3.699183 -0.0385,-2.10078 -1.48475,-3.58735 -3.49516,-3.59252 -1.66192,-0.004 -3.6786,1.53672 -4.73751,3.62003 -0.56112,1.10394 -0.63033,1.42551 -0.63581,2.954053 -0.005,1.50844 0.0514,1.79221 0.47101,2.35351 1.07257,1.43466 2.95103,1.78837 4.78615,0.90121 z m 13.72661,3.61108 c -2.13704,-0.58408 -3.50763,-2.1243 -3.50763,-3.94173 v -0.92294 h 1.85651 1.85652 l 0.19114,0.61224 c 0.28442,0.91102 1.28064,1.38938 2.88806,1.38678 1.50307,-0.002 2.44572,-0.4281 2.81096,-1.26931 0.53777,-1.23858 -0.0505,-1.68979 -3.21051,-2.46264 -3.6662,-0.896643 -4.79451,-1.818853 -4.79451,-3.918743 0,-1.36279 0.25373,-2.15465 1.04704,-3.26769 1.26564,-1.77574 3.7434,-2.89683 6.40238,-2.89683 3.77502,0 5.93019,1.64389 5.93415,4.52636 l 10e-4,0.80998 h -1.89783 -1.89783 v -0.49112 c 0,-0.2887 -0.24067,-0.72072 -0.58395,-1.04821 -0.51205,-0.4885 -0.72726,-0.557 -1.748,-0.55638 -2.36732,10e-4 -3.94497,1.84807 -2.46257,2.8824 0.27469,0.19166 1.3984,0.57459 2.49715,0.85096 2.63508,0.6628 3.75785,1.22133 4.444,2.2107 0.46763,0.674293 0.5476,0.981593 0.53241,2.046003 -0.01,0.6889 -0.16177,1.57233 -0.33764,1.96319 -0.5177,1.15055 -2.00396,2.51324 -3.39333,3.11121 -1.0813,0.46537 -1.53505,0.54323 -3.44293,0.5908 -1.45842,0.0364 -2.52951,-0.036 -3.18471,-0.21503 z M 24.382575,106.43971 c 0.129163,-0.51792 3.098877,-15.725563 3.098877,-15.869073 0,-0.19062 7.270847,-0.0971 8.51453,0.10956 2.687614,0.4465 4.006751,1.94115 3.827116,4.33633 -0.166991,2.22657 -1.404251,4.13702 -3.171662,4.89735 -0.428769,0.184463 -0.77958,0.434033 -0.77958,0.554603 0,0.12057 0.539383,1.58248 1.198629,3.24869 0.659246,1.6662 1.198629,3.05537 1.198629,3.08704 0,0.0317 -0.981434,0.0576 -2.180964,0.0576 h -2.180964 l -0.318187,-0.80998 c -0.175003,-0.44549 -0.658906,-1.79626 -1.075339,-3.0017 l -0.757152,-2.19171 -1.127809,-0.0568 -1.127808,-0.0568 -0.120155,0.62859 c -0.06609,0.34573 -0.323632,1.70064 -0.572326,3.0109 l -0.45217,2.38229 -2.041142,0.0544 c -2.03666,0.0542 -2.040903,0.0534 -1.932523,-0.38117 z m 9.375937,-8.744963 c 0.430839,-0.11412 1.037645,-0.45009 1.348458,-0.74661 0.467217,-0.44573 0.565114,-0.70162 0.565114,-1.47716 0,-1.4531 -0.362361,-1.66416 -2.857132,-1.66416 H 30.79768 l -0.349523,1.81054 c -0.192237,0.9958 -0.354057,1.91775 -0.359599,2.04878 -0.0129,0.30494 2.551247,0.32493 3.669954,0.0286 z m 8.96442,8.741193 c 0.05704,-0.23747 0.746966,-3.73363 1.533162,-7.769243 0.786195,-4.03561 1.470509,-7.53044 1.520697,-7.76628 l 0.09125,-0.42882 h 5.556501 c 3.056075,0 5.601886,0.0433 5.657357,0.0962 0.09408,0.0897 -0.125008,1.93937 -0.344152,2.90548 -0.09658,0.42579 -0.123144,0.42881 -3.772682,0.42881 h -3.675411 l -0.20069,0.90527 c -0.11038,0.4979 -0.262679,1.22688 -0.338444,1.61996 l -0.137753,0.71469 h 3.340119 3.34012 l -0.104838,0.42881 c -0.05766,0.23585 -0.20818,0.9199 -0.334487,1.52012 l -0.22965,1.091313 -3.328515,0.0522 -3.328516,0.0522 -0.227894,0.97986 c -0.125342,0.53892 -0.288753,1.28934 -0.363137,1.66761 l -0.135242,0.68774 h 3.713877 3.713878 l -0.120066,0.6194 c -0.06604,0.34067 -0.183559,1.04821 -0.261162,1.57232 l -0.141096,0.95291 -5.763471,0.0506 -5.76347,0.0506 z m 16.213568,-0.003 c 0.181648,-0.79053 3.105423,-15.781613 3.105423,-15.922443 0,-0.0452 1.865367,-0.041 4.145259,0.009 4.714191,0.10392 5.818222,0.32176 6.910128,1.36344 0.87765,0.83729 1.220403,2.03843 1.070015,3.74975 -0.225112,2.56164 -1.752398,4.629183 -4.067786,5.506693 -0.931847,0.35316 -1.671095,0.45958 -3.687511,0.53083 l -2.522012,0.0891 -0.468365,2.55109 -0.468366,2.55109 h -2.057659 c -2.029883,0 -2.056329,-0.006 -1.959126,-0.42882 z m 9.709126,-8.286513 c 0.916453,-0.54133 1.387157,-1.35384 1.387157,-2.39446 0,-1.49404 -0.896524,-2.02578 -3.432596,-2.03594 -1.300487,-0.005 -1.178242,-0.18013 -1.661677,2.37775 -0.178299,0.94339 -0.376246,1.91929 -0.439882,2.16866 l -0.115702,0.45341 1.787371,-0.0815 c 1.371172,-0.0625 1.947566,-0.17614 2.475329,-0.48789 z m 27.820861,8.286513 c 0.0589,-0.23584 0.74483,-3.73067 1.52418,-7.766283 0.779356,-4.03561 1.461766,-7.53044 1.516466,-7.76628 l 0.0994,-0.42882 h 5.589797 5.5898 l -0.009,0.52411 c -0.005,0.28826 -0.12072,1.03868 -0.25761,1.66761 l -0.2489,1.1435 -3.67891,0.0953 -3.6789,0.0953 -0.31954,1.57232 -0.31954,1.57231 h 3.2572 c 1.99722,0 3.2572,0.0724 3.2572,0.18705 0,0.10287 -0.10819,0.78897 -0.24043,1.52467 l -0.24044,1.337623 h -3.34199 c -3.01073,0 -3.35212,0.0331 -3.4442,0.33352 -0.14032,0.45789 -0.52403,2.53879 -0.52403,2.84191 0,0.19094 0.8249,0.25838 3.65173,0.29851 l 3.65172,0.0519 -0.28477,1.57231 -0.28478,1.57232 h -5.68598 -5.685973 z m 37.093633,0.10911 c 0,-0.17583 0.44479,-2.59862 0.98843,-5.38398 0.54363,-2.785363 1.07074,-5.514543 1.17135,-6.064853 l 0.18293,-1.00057 h -2.46987 c -1.84481,0 -2.46888,-0.0603 -2.46594,-0.23823 0.002,-0.13102 0.13387,-0.92433 0.29269,-1.7629 0.15881,-0.83856 0.29189,-1.54611 0.29572,-1.57231 0.004,-0.0262 3.19832,-0.0477 7.09886,-0.0477 8.06736,0 7.2869,-0.19883 6.8829,1.75352 -0.43536,2.10388 -0.0569,1.86757 -2.99116,1.86757 -1.42627,0 -2.59322,0.0215 -2.59322,0.0478 0,0.0263 -0.53939,2.74919 -1.19863,6.050913 -0.65925,3.30172 -1.19863,6.15327 -1.19863,6.33678 0,0.29556 -0.22803,0.33365 -1.99772,0.33365 -1.7365,0 -1.99771,-0.0418 -1.99771,-0.31971 z M 20.689221,82.467047 v -3.23992 h 81.906319 81.90631 v 3.23992 3.23992 H 102.59554 20.689221 Z m 2.293265,-7.67099 c 0.09931,-0.41189 0.600006,-2.9523 4.40422,-22.34593 0.945827,-4.82177 2.163149,-10.98962 2.70516,-13.70633 0.54201,-2.71672 0.985473,-5.01087 0.985473,-5.09812 0,-0.13487 23.770788,-0.24584 23.773914,-0.11098 6.08e-4,0.0262 0.22495,3.39239 0.498539,7.48041 0.273588,4.08802 0.632439,9.66259 0.797446,12.38794 0.400223,6.61031 0.521114,8.144 0.633488,8.0368 0.05192,-0.0495 2.009093,-3.93639 4.349267,-8.63744 2.340174,-4.70106 5.470833,-10.94873 6.95702,-13.88372 l 2.702158,-5.33634 11.212777,-0.0492 11.212779,-0.0492 -0.0996,0.4304 c -0.0548,0.23672 -0.45814,2.10277 -0.89631,4.14678 -0.43818,2.04401 -1.56601,7.27553 -2.506304,11.62561 -0.940292,4.35007 -2.539065,11.87427 -3.552828,16.72046 l -1.843207,8.81124 -6.963433,0.003 c -5.959252,0.003 -6.947614,-0.0361 -6.853738,-0.26946 0.06033,-0.14999 0.568403,-2.61567 1.129044,-5.47928 0.971262,-4.96095 1.824819,-9.26356 3.197165,-16.11627 0.786558,-3.92762 1.206081,-6.39627 1.103599,-6.49404 -0.04402,-0.042 -1.785887,3.17057 -3.87081,7.13903 -2.084922,3.96845 -4.967263,9.40232 -6.405202,12.07526 -1.437938,2.67293 -3.13086,5.82465 -3.762048,7.00382 l -1.147615,2.14393 -7.117165,1.3e-4 -7.117165,1.3e-4 -0.225137,-1.7629 c -0.123825,-0.96959 -0.62821,-5.49357 -1.120854,-10.05328 -0.492645,-4.55972 -1.076662,-9.88217 -1.297816,-11.82768 -0.221154,-1.9455 -0.402098,-3.85878 -0.402098,-4.25173 0,-0.85062 -0.317328,-0.76778 -0.445357,0.11626 -0.04948,0.34164 -0.729935,3.40845 -1.512127,6.81513 -1.402289,6.10739 -2.693545,11.93506 -3.842775,17.34311 -0.322985,1.51991 -0.635073,2.95643 -0.693529,3.19228 l -0.106314,0.42881 H 29.8711 22.879097 Z m 97.125624,-1.90584 c 0.88183,-4.35162 7.65864,-39.12358 7.65864,-39.29663 0,-0.0586 4.6297,-0.10653 10.28823,-0.10653 8.09582,0 10.28886,0.0508 10.29119,0.23823 0.002,0.13102 0.0885,1.4389 0.19305,2.9064 0.10455,1.46749 0.28566,4.21189 0.40247,6.09867 0.96932,15.65634 1.24119,19.38459 1.40061,19.20757 0.0739,-0.0821 0.25428,-0.44937 0.40086,-0.81625 0.14657,-0.36687 1.52231,-3.36856 3.0572,-6.67042 1.53489,-3.30186 3.25868,-7.03254 3.83065,-8.29039 1.19712,-2.6327 5.07342,-10.89838 5.60839,-11.95913 l 0.36045,-0.71468 h 9.86515 c 9.30116,0 9.8593,0.0191 9.76288,0.33352 -0.0931,0.30361 -0.87739,4.09687 -2.19683,10.62504 -1.58271,7.83079 -6.09741,29.74947 -6.25142,30.35044 l -0.10989,0.42881 h -6.24715 -6.24714 l 0.26367,-1.38173 c 0.14503,-0.75995 0.80452,-4.2119 1.46555,-7.67099 1.10444,-5.77948 3.29217,-17.37721 3.51596,-18.63902 0.15001,-0.84586 -0.21048,-0.43335 -0.75628,0.8654 -0.65505,1.55871 -10.76512,22.77849 -12.57699,26.39753 l -0.21468,0.42881 h -6.66028 c -3.66315,0 -6.66028,-0.0565 -6.66028,-0.1256 0,-0.0691 -0.31902,-3.86408 -0.70894,-8.43333 -0.38992,-4.56924 -0.91495,-10.90264 -1.16674,-14.07422 -0.2518,-3.17157 -0.5171,-5.82307 -0.58958,-5.89221 -0.0725,-0.0691 -0.13177,0.0552 -0.13177,0.27625 0,0.3693 -2.33729,12.35977 -4.18773,21.48339 -0.4252,2.09642 -0.88804,4.47634 -1.02855,5.2887 l -0.25546,1.47702 h -6.42417 -6.42417 z m -24.704343,0.50667 c -1.78025,-0.4508 -3.2211,-1.22077 -4.42168,-2.36288 -4.270294,-4.06235 -3.515981,-11.04653 1.7168,-15.89583 1.12846,-1.04576 4.47143,-3.47926 5.799726,-4.2219 l 0.86972,-0.48625 -0.58287,-1.34848 c -0.835326,-1.93251 -1.262676,-4.13358 -1.108936,-5.71161 0.537946,-5.52193 6.051283,-10.1124 11.187553,-9.3149 3.74652,0.58172 5.21602,3.74936 3.70259,7.98122 -0.89809,2.51121 -3.70758,5.6295 -7.01367,7.78456 -0.74761,0.48732 -1.35923,0.93523 -1.35916,0.99534 3.5e-4,0.28093 6.82742,11.62432 7.00179,11.6337 0.39405,0.0212 3.75608,-5.59214 4.64796,-7.76037 l 0.33317,-0.80998 h 1.49991 c 0.82494,0 1.4999,0.0402 1.4999,0.0892 0,0.0491 -0.37418,0.92815 -0.8315,1.95348 -1.48179,3.32218 -2.44712,4.92634 -5.2417,8.71056 -0.32619,0.4417 2.70097,4.16115 4.38508,5.38792 l 0.92069,0.67066 -0.13602,0.94345 c -0.28925,2.00642 -0.26099,1.97545 -1.75974,1.92851 -0.73011,-0.0229 -1.58513,-0.16869 -1.90005,-0.32405 -0.76705,-0.37841 -2.43973,-2.14812 -3.65716,-3.8693 l -0.99212,-1.40264 -1.43683,1.27056 c -2.51424,2.22332 -4.73649,3.47268 -7.28131,4.0936 -1.794397,0.43782 -4.262273,0.46544 -5.842143,0.0654 z m 5.416503,-3.69699 c 1.51786,-0.26609 4.43083,-1.69231 6.02041,-2.94766 0.74165,-0.58571 1.34846,-1.14619 1.34846,-1.2455 0,-0.0993 -0.92801,-1.6626 -2.06225,-3.47396 -1.13424,-1.81137 -2.80567,-4.55839 -3.71429,-6.1045 -0.90862,-1.54611 -1.68435,-2.81111 -1.72384,-2.81111 -0.36929,0 -3.152263,2.1321 -4.585793,3.51329 -2.02775,1.9537 -3.14695,3.77608 -3.51903,5.73002 -0.55458,2.91226 0.68945,5.5875 3.14158,6.75583 1.62317,0.77337 3.068026,0.93887 5.094753,0.58359 z m 3.23771,-22.14945 c 1.9161,-1.48542 3.75035,-3.28833 4.43905,-4.36322 1.39322,-2.17445 1.55954,-4.4981 0.39079,-5.45969 -0.40718,-0.33501 -0.76715,-0.42881 -1.64561,-0.42881 -1.43954,0 -2.5966,0.52587 -3.63622,1.65263 -1.60849,1.74329 -2.24395,3.78371 -1.85401,5.95308 0.22908,1.27447 0.96769,3.44814 1.17167,3.44814 0.0548,0 0.56525,-0.36096 1.13433,-0.80213 z m -52.93766,-17.7949 c -0.456328,-0.43534 -0.500788,-0.59352 -0.388355,-1.38173 0.291198,-2.04145 2.034481,-4.13821 4.330172,-5.20819 2.508671,-1.16924 4.581222,-1.57935 13.772017,-2.72514 11.73608,-1.4631 13.146557,-1.78128 15.825276,-3.5699 1.120325,-0.74805 6.147137,-3.00899 8.753627,-3.93715 7.493893,-2.66856 14.239433,-3.7487098 23.266373,-3.7255898 9.38513,0.024 16.33904,1.2700598 24.374,4.3674098 4.90756,1.89179 10.47931,4.8062 14.21991,7.43801 0.31453,0.22129 1.18513,0.3558 3.09646,0.4784 8.96449,0.57501 16.65342,3.70254 16.06012,6.53258 -0.31816,1.51767 -1.55558,2.21222 -3.95293,2.21874 -1.69449,0.005 -2.52768,-0.23984 -6.05217,-1.77563 -4.05671,-1.7677 -6.67758,-2.22821 -12.68549,-2.22893 -7.59316,-9.1e-4 -17.36294,0.94128 -28.79428,2.7769 -1.60812,0.25823 -3.19383,0.46951 -3.52381,0.46951 -0.55895,0 -1.66611,-0.62486 -1.4433,-0.81457 0.0549,-0.0468 0.90896,-0.34753 1.89783,-0.66835 5.95679,-1.93256 15.33241,-3.99806 24.12241,-5.3143 1.95027,-0.29204 3.54594,-0.57674 3.54594,-0.63268 0,-0.20161 -4.1462,-2.27287 -6.46614,-3.23019 -4.67088,-1.92745 -9.60444,-3.27952 -15.19158,-4.16334 -3.00931,-0.47604 -3.61429,-0.50814 -9.50663,-0.50443 -5.51591,0.003 -6.65042,0.0568 -9.18949,0.43199 -7.12607,1.05297 -12.097743,2.52691 -18.578746,5.50797 -6.110503,2.81064 -7.781222,3.21651 -15.881835,3.8582 -14.401668,1.14083 -16.742212,1.73662 -18.78888,4.78278 -1.123054,1.6715 -1.857389,1.93645 -2.820499,1.01763 z"
         id="path1"
         inkscape:label="path1"
         sodipodi:nodetypes="sssssscsssssssssssssscscccsssscsscssssssssscccssssccssscscsscscccscsssssccccsscssscsssccsscsssssscsscccssccsssssscssssssscsssscsscccsscccsscccsscccscscsssscccsccsscsscssscscccccscccccssscssscccccccssscscscssssssssscccccccccsssssssssscccssssccssssssscccsssssssscccsssscssssssscsssscccssssscsssssssscccssssscsssssssscssssscsssscssssssssssssssssssssssssssssssssscsssssssssscsssss" /><path
         style="fill:#d40000;stroke-width:0.110626"
         d="m 20.705816,82.484457 v 3.17851 h 81.878414 81.87843 v -3.17851 -3.17851 H 102.58423 20.705816 Z"
         id="path2" /></g></g></svg>
